<mxfile host="app.diagrams.net" modified="2024-05-11T12:24:08.204Z" agent="Mozilla/5.0 (Windows NT 10.0; Win64; x64) AppleWebKit/537.36 (KHTML, like Gecko) Chrome/124.0.0.0 Safari/537.36" etag="KJkKac8yJpNkQntdjbhe" version="24.4.0" type="github">
  <diagram id="C5RBs43oDa-KdzZeNtuy" name="Page-1">
    <mxGraphModel dx="1035" dy="589" grid="1" gridSize="14" guides="1" tooltips="1" connect="1" arrows="1" fold="1" page="1" pageScale="1" pageWidth="827" pageHeight="1169" math="0" shadow="1">
      <root>
        <mxCell id="WIyWlLk6GJQsqaUBKTNV-0" />
        <mxCell id="WIyWlLk6GJQsqaUBKTNV-1" parent="WIyWlLk6GJQsqaUBKTNV-0" />
        <mxCell id="zVCkp5J0KDPA0QV9gLOc-6" value="" style="edgeStyle=orthogonalEdgeStyle;rounded=0;orthogonalLoop=1;jettySize=auto;html=1;" edge="1" parent="WIyWlLk6GJQsqaUBKTNV-1" source="2fUjafnunU4oYDVcbesf-0" target="zVCkp5J0KDPA0QV9gLOc-4">
          <mxGeometry relative="1" as="geometry" />
        </mxCell>
        <mxCell id="2fUjafnunU4oYDVcbesf-0" value="&lt;font style=&quot;font-size: 12px;&quot;&gt;Mulai&lt;/font&gt;" style="rounded=1;whiteSpace=wrap;html=1;arcSize=25;labelBackgroundColor=none;" parent="WIyWlLk6GJQsqaUBKTNV-1" vertex="1">
          <mxGeometry x="150" y="98" width="120" height="56" as="geometry" />
        </mxCell>
        <mxCell id="2fUjafnunU4oYDVcbesf-6" value="" style="edgeStyle=orthogonalEdgeStyle;rounded=0;orthogonalLoop=1;jettySize=auto;html=1;labelBackgroundColor=none;fontColor=default;" parent="WIyWlLk6GJQsqaUBKTNV-1" source="2fUjafnunU4oYDVcbesf-1" target="2fUjafnunU4oYDVcbesf-5" edge="1">
          <mxGeometry relative="1" as="geometry" />
        </mxCell>
        <mxCell id="2fUjafnunU4oYDVcbesf-1" value="Perancangan Sistem" style="rounded=0;whiteSpace=wrap;html=1;labelBackgroundColor=none;" parent="WIyWlLk6GJQsqaUBKTNV-1" vertex="1">
          <mxGeometry x="131" y="254" width="160" height="60" as="geometry" />
        </mxCell>
        <mxCell id="2fUjafnunU4oYDVcbesf-8" value="" style="edgeStyle=orthogonalEdgeStyle;rounded=0;orthogonalLoop=1;jettySize=auto;html=1;labelBackgroundColor=none;fontColor=default;" parent="WIyWlLk6GJQsqaUBKTNV-1" source="2fUjafnunU4oYDVcbesf-5" target="2fUjafnunU4oYDVcbesf-7" edge="1">
          <mxGeometry relative="1" as="geometry" />
        </mxCell>
        <mxCell id="2fUjafnunU4oYDVcbesf-5" value="Berhasil" style="rhombus;whiteSpace=wrap;html=1;rounded=0;labelBackgroundColor=none;" parent="WIyWlLk6GJQsqaUBKTNV-1" vertex="1">
          <mxGeometry x="171" y="334" width="80" height="80" as="geometry" />
        </mxCell>
        <mxCell id="2fUjafnunU4oYDVcbesf-11" value="" style="edgeStyle=orthogonalEdgeStyle;rounded=0;orthogonalLoop=1;jettySize=auto;html=1;labelBackgroundColor=none;fontColor=default;" parent="WIyWlLk6GJQsqaUBKTNV-1" source="2fUjafnunU4oYDVcbesf-7" target="2fUjafnunU4oYDVcbesf-10" edge="1">
          <mxGeometry relative="1" as="geometry" />
        </mxCell>
        <mxCell id="2fUjafnunU4oYDVcbesf-7" value="Pembuatan Sistem" style="rounded=0;whiteSpace=wrap;html=1;labelBackgroundColor=none;" parent="WIyWlLk6GJQsqaUBKTNV-1" vertex="1">
          <mxGeometry x="126" y="436" width="170" height="60" as="geometry" />
        </mxCell>
        <mxCell id="2fUjafnunU4oYDVcbesf-9" value="" style="endArrow=classic;html=1;rounded=0;exitX=1;exitY=0.5;exitDx=0;exitDy=0;labelBackgroundColor=none;fontColor=default;" parent="WIyWlLk6GJQsqaUBKTNV-1" source="2fUjafnunU4oYDVcbesf-5" edge="1">
          <mxGeometry width="50" height="50" relative="1" as="geometry">
            <mxPoint x="351" y="444" as="sourcePoint" />
            <mxPoint x="292" y="210" as="targetPoint" />
            <Array as="points">
              <mxPoint x="351" y="374" />
              <mxPoint x="351" y="210" />
            </Array>
          </mxGeometry>
        </mxCell>
        <mxCell id="2fUjafnunU4oYDVcbesf-15" value="" style="edgeStyle=orthogonalEdgeStyle;rounded=0;orthogonalLoop=1;jettySize=auto;html=1;labelBackgroundColor=none;fontColor=default;" parent="WIyWlLk6GJQsqaUBKTNV-1" source="2fUjafnunU4oYDVcbesf-10" target="2fUjafnunU4oYDVcbesf-14" edge="1">
          <mxGeometry relative="1" as="geometry" />
        </mxCell>
        <mxCell id="2fUjafnunU4oYDVcbesf-10" value="Perancangan Aplikasi" style="rounded=0;whiteSpace=wrap;html=1;labelBackgroundColor=none;" parent="WIyWlLk6GJQsqaUBKTNV-1" vertex="1">
          <mxGeometry x="126" y="518" width="170" height="60" as="geometry" />
        </mxCell>
        <mxCell id="2fUjafnunU4oYDVcbesf-17" value="" style="edgeStyle=orthogonalEdgeStyle;rounded=0;orthogonalLoop=1;jettySize=auto;html=1;labelBackgroundColor=none;fontColor=default;" parent="WIyWlLk6GJQsqaUBKTNV-1" source="2fUjafnunU4oYDVcbesf-14" target="2fUjafnunU4oYDVcbesf-16" edge="1">
          <mxGeometry relative="1" as="geometry" />
        </mxCell>
        <mxCell id="2fUjafnunU4oYDVcbesf-14" value="Pengujian Aplikasi" style="rounded=0;whiteSpace=wrap;html=1;labelBackgroundColor=none;" parent="WIyWlLk6GJQsqaUBKTNV-1" vertex="1">
          <mxGeometry x="128" y="605" width="165" height="60" as="geometry" />
        </mxCell>
        <mxCell id="2fUjafnunU4oYDVcbesf-19" value="" style="edgeStyle=orthogonalEdgeStyle;rounded=0;orthogonalLoop=1;jettySize=auto;html=1;entryX=1;entryY=0.5;entryDx=0;entryDy=0;labelBackgroundColor=none;fontColor=default;" parent="WIyWlLk6GJQsqaUBKTNV-1" edge="1">
          <mxGeometry relative="1" as="geometry">
            <mxPoint x="248" y="730" as="sourcePoint" />
            <mxPoint x="293" y="631" as="targetPoint" />
            <Array as="points">
              <mxPoint x="361" y="730" />
              <mxPoint x="361" y="630" />
            </Array>
          </mxGeometry>
        </mxCell>
        <mxCell id="2fUjafnunU4oYDVcbesf-16" value="Berhasil" style="rhombus;whiteSpace=wrap;html=1;rounded=0;labelBackgroundColor=none;" parent="WIyWlLk6GJQsqaUBKTNV-1" vertex="1">
          <mxGeometry x="171" y="691" width="80" height="80" as="geometry" />
        </mxCell>
        <mxCell id="zVCkp5J0KDPA0QV9gLOc-14" value="" style="edgeStyle=orthogonalEdgeStyle;rounded=0;orthogonalLoop=1;jettySize=auto;html=1;" edge="1" parent="WIyWlLk6GJQsqaUBKTNV-1" source="2fUjafnunU4oYDVcbesf-20" target="2fUjafnunU4oYDVcbesf-22">
          <mxGeometry relative="1" as="geometry" />
        </mxCell>
        <mxCell id="2fUjafnunU4oYDVcbesf-20" value="Pengambilan Data" style="rounded=0;whiteSpace=wrap;html=1;labelBackgroundColor=none;" parent="WIyWlLk6GJQsqaUBKTNV-1" vertex="1">
          <mxGeometry x="506" y="215" width="160" height="60" as="geometry" />
        </mxCell>
        <mxCell id="zVCkp5J0KDPA0QV9gLOc-17" value="" style="edgeStyle=orthogonalEdgeStyle;rounded=0;orthogonalLoop=1;jettySize=auto;html=1;" edge="1" parent="WIyWlLk6GJQsqaUBKTNV-1" source="2fUjafnunU4oYDVcbesf-22" target="zVCkp5J0KDPA0QV9gLOc-16">
          <mxGeometry relative="1" as="geometry" />
        </mxCell>
        <mxCell id="2fUjafnunU4oYDVcbesf-22" value="Analisis Data" style="rounded=0;whiteSpace=wrap;html=1;labelBackgroundColor=none;" parent="WIyWlLk6GJQsqaUBKTNV-1" vertex="1">
          <mxGeometry x="506" y="316" width="160" height="60" as="geometry" />
        </mxCell>
        <mxCell id="2fUjafnunU4oYDVcbesf-24" value="Selesai" style="rounded=1;whiteSpace=wrap;html=1;labelBackgroundColor=none;" parent="WIyWlLk6GJQsqaUBKTNV-1" vertex="1">
          <mxGeometry x="526" y="518" width="120" height="60" as="geometry" />
        </mxCell>
        <mxCell id="2fUjafnunU4oYDVcbesf-26" value="TIdak" style="text;html=1;align=center;verticalAlign=middle;whiteSpace=wrap;rounded=0;labelBackgroundColor=none;" parent="WIyWlLk6GJQsqaUBKTNV-1" vertex="1">
          <mxGeometry x="271" y="704" width="60" height="30" as="geometry" />
        </mxCell>
        <mxCell id="2fUjafnunU4oYDVcbesf-27" value="TIdak" style="text;html=1;align=center;verticalAlign=middle;whiteSpace=wrap;rounded=0;labelBackgroundColor=none;" parent="WIyWlLk6GJQsqaUBKTNV-1" vertex="1">
          <mxGeometry x="271" y="344" width="60" height="30" as="geometry" />
        </mxCell>
        <mxCell id="2fUjafnunU4oYDVcbesf-29" value="Ya" style="text;html=1;align=center;verticalAlign=middle;whiteSpace=wrap;rounded=0;labelBackgroundColor=none;" parent="WIyWlLk6GJQsqaUBKTNV-1" vertex="1">
          <mxGeometry x="211" y="761" width="60" height="30" as="geometry" />
        </mxCell>
        <mxCell id="2fUjafnunU4oYDVcbesf-30" value="Ya" style="text;html=1;align=center;verticalAlign=middle;whiteSpace=wrap;rounded=0;labelBackgroundColor=none;" parent="WIyWlLk6GJQsqaUBKTNV-1" vertex="1">
          <mxGeometry x="211" y="404" width="60" height="30" as="geometry" />
        </mxCell>
        <mxCell id="zVCkp5J0KDPA0QV9gLOc-5" value="" style="edgeStyle=orthogonalEdgeStyle;rounded=0;orthogonalLoop=1;jettySize=auto;html=1;" edge="1" parent="WIyWlLk6GJQsqaUBKTNV-1" source="zVCkp5J0KDPA0QV9gLOc-4">
          <mxGeometry relative="1" as="geometry">
            <mxPoint x="208" y="252" as="targetPoint" />
            <Array as="points">
              <mxPoint x="236" y="224" />
              <mxPoint x="236" y="224" />
            </Array>
          </mxGeometry>
        </mxCell>
        <mxCell id="zVCkp5J0KDPA0QV9gLOc-4" value="Perancangan Sistem" style="rounded=0;whiteSpace=wrap;html=1;labelBackgroundColor=none;" vertex="1" parent="WIyWlLk6GJQsqaUBKTNV-1">
          <mxGeometry x="130" y="173" width="160" height="60" as="geometry" />
        </mxCell>
        <mxCell id="zVCkp5J0KDPA0QV9gLOc-8" value="A" style="ellipse;whiteSpace=wrap;html=1;aspect=fixed;" vertex="1" parent="WIyWlLk6GJQsqaUBKTNV-1">
          <mxGeometry x="171" y="812" width="80" height="80" as="geometry" />
        </mxCell>
        <mxCell id="zVCkp5J0KDPA0QV9gLOc-9" value="" style="endArrow=classic;html=1;rounded=0;exitX=0;exitY=0.5;exitDx=0;exitDy=0;entryX=0.5;entryY=0;entryDx=0;entryDy=0;" edge="1" parent="WIyWlLk6GJQsqaUBKTNV-1" source="2fUjafnunU4oYDVcbesf-29" target="zVCkp5J0KDPA0QV9gLOc-8">
          <mxGeometry width="50" height="50" relative="1" as="geometry">
            <mxPoint x="194" y="848" as="sourcePoint" />
            <mxPoint x="244" y="798" as="targetPoint" />
          </mxGeometry>
        </mxCell>
        <mxCell id="zVCkp5J0KDPA0QV9gLOc-11" value="" style="edgeStyle=orthogonalEdgeStyle;rounded=0;orthogonalLoop=1;jettySize=auto;html=1;" edge="1" parent="WIyWlLk6GJQsqaUBKTNV-1" source="zVCkp5J0KDPA0QV9gLOc-10" target="2fUjafnunU4oYDVcbesf-20">
          <mxGeometry relative="1" as="geometry" />
        </mxCell>
        <mxCell id="zVCkp5J0KDPA0QV9gLOc-10" value="A" style="ellipse;whiteSpace=wrap;html=1;aspect=fixed;" vertex="1" parent="WIyWlLk6GJQsqaUBKTNV-1">
          <mxGeometry x="546" y="98" width="80" height="80" as="geometry" />
        </mxCell>
        <mxCell id="zVCkp5J0KDPA0QV9gLOc-13" style="edgeStyle=orthogonalEdgeStyle;rounded=0;orthogonalLoop=1;jettySize=auto;html=1;exitX=0.5;exitY=1;exitDx=0;exitDy=0;" edge="1" parent="WIyWlLk6GJQsqaUBKTNV-1" source="2fUjafnunU4oYDVcbesf-24" target="2fUjafnunU4oYDVcbesf-24">
          <mxGeometry relative="1" as="geometry" />
        </mxCell>
        <mxCell id="zVCkp5J0KDPA0QV9gLOc-18" value="" style="edgeStyle=orthogonalEdgeStyle;rounded=0;orthogonalLoop=1;jettySize=auto;html=1;" edge="1" parent="WIyWlLk6GJQsqaUBKTNV-1" source="zVCkp5J0KDPA0QV9gLOc-16" target="2fUjafnunU4oYDVcbesf-24">
          <mxGeometry relative="1" as="geometry" />
        </mxCell>
        <mxCell id="zVCkp5J0KDPA0QV9gLOc-16" value="Kesimpulan" style="rounded=0;whiteSpace=wrap;html=1;labelBackgroundColor=none;" vertex="1" parent="WIyWlLk6GJQsqaUBKTNV-1">
          <mxGeometry x="506" y="414" width="160" height="60" as="geometry" />
        </mxCell>
      </root>
    </mxGraphModel>
  </diagram>
</mxfile>
